<?xml version="1.0" encoding="UTF-8"?>
<svg viewBox="0 0 744.09447 1052.362179" xmlns="http://www.w3.org/2000/svg">
 <g transform="matrix(1.1181 0 0 1.1151 53.62 -1244.5)">
  <path d="m134.4 1635.2-62.381 2.1429c-5.0783 0-44.167 1.9454-44.167 7.0238l-1.4286 4.5237c0 5.0784 5.5169 6.3096 10.595 6.3096l100.24-1.4286c5.2271-1.8921 4.7232-15.466-2.8571-18.571z" fill="#2b1100" stroke="#000" stroke-width="5.7319"/>
  <path d="m180.28 1636.5 52.244 2.1429c4.2531 0 36.99 1.9454 36.99 7.0238l1.1964 4.5237c0 5.0784-4.6204 6.3096-8.8736 6.3096l-83.95-1.4286c-4.3778-1.8921-3.9557-15.466 2.3929-18.571z" fill="#2b1100" stroke="#000" stroke-width="5.7319"/>
  <path d="m280.83 1511.8-225.09 3.4577s-21.874 45.16 23.915 71.25l-6.6938 48.737 73.153 2.8616 0.97291-32.063c7.8072 0.6418 15.614 1.6202 23.422-0.3302v31.687l78.905-2.1429-10.89-46.344c49.64-25.849 42.307-77.114 42.307-77.114z" fill="#216778" stroke="#000" stroke-width="10.747"/>
  <path d="m97.985 1593.1s-7.7733 28.605-45.53 22.884-14.436-37.187-14.436-37.187 23.277-5.249 32.204 6.6746l27.762 7.6281z" fill="#ffd5d5" stroke="#000" stroke-linecap="round" stroke-linejoin="round" stroke-width="8.6874"/>
  <path d="m108.75 1371.1s-32.325-2.0204-62.629 58.589 10.102 134.35 10.102 134.35l221.22 4.0406s45.457-166.68-95.964-201.02l-72.731 4.0407z" fill="#008000" stroke="#000" stroke-linejoin="round" stroke-width="11.912"/>
  <path d="m61.493 1529.1-15.462-12.004c-1.7481-6.1756-2.3555-12.351-3.4312-18.527l13.487 9.3124 9.3288-21.219 22.103 18.094 13.728-21.187 21.599 13.969 17.677-16.062 11.317 16.562 9.5409-10.062v-0.2812l0.13251 0.125 0.13251-0.125v0.2812l9.5409 10.062 11.317-16.562 17.651 16.062 21.626-13.969 13.728 21.187 22.103-18.094 9.3288 21.219 11.433-8.0624c0.2909 5.7887 0.0874 11.577-0.5741 17.366l-16.266 11.915-8.3482-24.344-19.135 17.094-14.735-17.094-12.774 18.125-17.677-21.219-11.767 23.281-15.583-14.906-15.583 14.906-11.767-23.281-17.677 21.219-12.774-18.125-14.735 17.094-19.135-17.094-8.3482 24.344z" fill="#0f0"/>
  <path d="m61.429 1463.7-7.1429 128.1 47.143 2.697 7.1429-117.32" fill="#008000" stroke="#000" stroke-width="11.553"/>
  <path d="m217.97 1589.8s7.7733 26.458 45.53 21.166 14.436-34.396 14.436-34.396-23.277-4.855-32.204 6.1736l-27.762 7.0556z" fill="#ffd5d5" stroke="#000" stroke-linecap="round" stroke-linejoin="round" stroke-width="8.6874"/>
  <path d="m255.71 1462.3 7.1428 125.53-47.143 2.6428-7.1429-114.96" fill="#008000" stroke="#000" stroke-width="10.21"/>
 </g>
 <path d="m237.86 106.2c-34.587-0.62188-67.794 8.9181-82.471 62.827-21.678-26.516-41.748-6.3485-41.471 16.294s18.134 21.97 35.034 22.453c-11.099 96.885-58.246 198.64 82.364 192.73 134.78 3.1654 99.473-116.66 81.002-200.72 8.5204-0.65108 27.041 0.0367 25.765-25.041-1.9261-21.594-17.851-31.849-32.674-13.128-7.4031-34.564-38.4-54.893-67.551-55.418z" fill="#fff6d5" stroke="#000" stroke-width="8.5"/>
 <path d="m143.06 169.53-1.1294 27.033-5.647 24.781 4.5176 2.2528-13.553 25.907 20.329-5.632 7.9058 15.77 4.5176-52.94 6.7764-27.033 4.5176-39.424s27.106-22.528 50.823-22.528 67.764 24.781 67.764 24.781l10.165 36.045 4.5176 30.413-1.1294 13.517 9.0353-1.1264 7.9058-7.8848 7.9059 11.264 11.294-5.632-20.329-16.896 14.682 1.1264-23.718-27.033 4.5176-27.033h14.682l14.682 3.3792-15.812-19.149 15.812-12.39-21.459-13.517 16.941-6.7584-28.235-3.3792 10.165-33.792-38.4 15.77-4.5176-16.896-22.588 6.7584s-35.012 1.1264-51.953-20.275-20.329-30.413-20.329-30.413-11.294 18.022-10.165 33.792 4.5176 21.401 4.5176 21.401l-16.941-23.654s-9.0353 15.77-7.9058 25.907 3.3882 22.528 3.3882 22.528l-19.2-4.5056 7.9058 15.77h-29.365l15.812 27.033-20.329 12.39h18.071l-5.647 9.0112h14.682l4.5176 11.264z" fill="#2b2200"/>
 <path d="m290.54 131.3c-18.569-15.868-42.936-8.2273-42.936-8.2273" fill="none" stroke="#000" stroke-linecap="square" stroke-width="19"/>
 <path d="m171.68 138.51c18.569-15.868 42.936-8.2273 42.936-8.2273" fill="none" stroke="#000" stroke-linecap="square" stroke-width="20"/>
 <path d="m148.53 225.85-28.75 50.975-17.569 78.055 17.569-15.93-3.1945 73.276 17.569-28.673 15.972 70.09 30.347-33.452 27.153 38.231 23.958-35.045 22.361 17.523 6.3889-27.08 31.944 31.859 12.778-35.045 38.333 22.301-20.764-50.975 39.931 20.708-15.972-73.276 17.569 17.523-15.972-68.497h14.375l-55.903-79.648s14.375 57.347-11.181 84.427-30.347-7.9648-30.347-7.9648c-21.296 23.177-42.593 18.023-63.889 3.1859 0 0-6.3889 15.93-25.556 15.93s-28.75-66.904-27.153-68.497z" fill="#2b2200"/>
 <path d="m210.61 198.99s-43.125 97.171 27.153 89.206 19.167-100.36 19.167-100.36" fill="#fff6d5" stroke="#000" stroke-width="11.2"/>
 <path transform="matrix(.59198 -.82535 .89062 .5486 -335.51 287.58)" d="m431.43 406.65a31.429 37.143 0 1 1 -62.857 0 31.429 37.143 0 1 1 62.857 0z" fill="#fff" stroke="#000" stroke-linejoin="round" stroke-width="11.656"/>
 <path transform="matrix(-.48359 -.74198 -.72756 .49318 683.25 286.76)" d="m431.43 406.65a31.429 37.143 0 1 1 -62.857 0 31.429 37.143 0 1 1 62.857 0z" fill="#fff" stroke="#000" stroke-linejoin="round" stroke-width="13.602"/>
 <path transform="matrix(-.18469 -.38327 -.27787 .25475 387.21 237.05)" d="m431.43 406.65a31.429 37.143 0 1 1 -62.857 0 31.429 37.143 0 1 1 62.857 0z"/>
 <path transform="matrix(.18469 -.38327 .27787 .25475 66.974 231.47)" d="m431.43 406.65a31.429 37.143 0 1 1 -62.857 0 31.429 37.143 0 1 1 62.857 0z"/>
 <path d="m232.29 332.4c-4.9927-21.443-34.151-15.396-34.151-15.396" fill="none" stroke="#000" stroke-linecap="round" stroke-width="9.9"/>
</svg>
